<?xml version="1.0" standalone="no"?>
<!DOCTYPE svg PUBLIC "-//W3C//DTD SVG 20010904//EN"
 "http://www.w3.org/TR/2001/REC-SVG-20010904/DTD/svg10.dtd">
<svg version="1.0" xmlns="http://www.w3.org/2000/svg"
 width="576.000000pt" height="576.000000pt" viewBox="0 0 576.000000 576.000000"
 preserveAspectRatio="xMidYMid meet">
<metadata>
Created by potrace 1.14, written by Peter Selinger 2001-2017
</metadata>
<g transform="translate(0.000000,576.000000) scale(0.100000,-0.100000)"
fill="#000000" stroke="none">
<path d="M213 5100 c-29 -10 -63 -27 -76 -37 -54 -44 -77 -67 -77 -80 0 -7 -4
-13 -9 -13 -8 0 -22 -30 -39 -80 -9 -30 -9 -156 1 -180 5 -14 11 -30 13 -37 7
-34 111 -142 898 -930 468 -469 851 -857 851 -863 0 -6 -386 -397 -858 -869
-471 -472 -857 -864 -857 -870 0 -6 -4 -11 -9 -11 -8 0 -22 -30 -39 -80 -9
-30 -9 -156 1 -180 5 -14 11 -30 13 -37 4 -22 46 -77 83 -111 63 -56 115 -75
211 -76 75 -1 91 2 140 28 44 23 252 226 1056 1030 l1001 1001 21 65 c16 46
21 82 18 125 -4 62 -7 75 -34 135 -9 22 -383 403 -1016 1036 -821 821 -1010
1005 -1051 1024 -68 31 -171 35 -242 10z"/>
<path d="M2597 1284 c-1 -1 -30 -4 -64 -7 -34 -3 -81 -15 -105 -27 -52 -24
-128 -88 -128 -107 0 -7 -4 -13 -9 -13 -8 0 -26 -37 -39 -85 -4 -11 -6 -54 -6
-95 1 -85 24 -147 78 -203 69 -74 146 -106 250 -103 31 0 56 -1 56 -4 0 -6 99
-4 105 2 3 2 27 2 55 -2 27 -3 55 -3 61 1 6 3 25 3 43 0 17 -4 45 -4 63 -1 17
4 36 4 42 0 6 -3 34 -3 61 0 28 4 50 4 50 1 0 -7 99 -6 105 1 3 2 27 2 55 -2
27 -3 55 -3 61 1 6 3 25 3 43 0 17 -4 45 -4 63 -1 17 4 36 4 42 0 6 -3 34 -3
61 0 28 4 50 4 50 1 0 -7 99 -6 105 1 3 2 27 2 55 -2 27 -3 55 -3 61 0 6 4 25
4 42 0 18 -3 46 -3 63 1 18 3 37 3 43 0 6 -4 34 -4 61 -1 28 4 50 4 50 1 0 -7
99 -6 105 1 3 2 27 2 55 -2 27 -3 55 -3 61 1 6 3 25 3 43 0 17 -4 45 -4 63 -1
17 4 36 4 42 0 6 -3 34 -3 61 0 28 4 50 4 50 1 0 -7 99 -6 105 1 3 2 27 2 55
-2 27 -3 55 -3 61 1 6 3 25 3 43 0 17 -4 45 -4 63 -1 17 4 36 4 42 0 6 -3 34
-3 61 0 28 4 50 4 50 1 0 -5 96 -5 110 0 3 1 9 1 14 0 7 -2 63 -2 106 0 16 0
121 0 155 -1 56 -1 75 2 130 20 74 25 142 85 181 160 26 48 29 65 28 140 0
100 -23 157 -88 224 -69 69 -167 102 -286 96 -19 -1 -42 -1 -50 -1 -50 2 -104
0 -111 -5 -5 -3 -9 -1 -9 3 0 5 -26 6 -58 3 -33 -3 -70 -3 -83 0 -13 4 -41 3
-62 -1 -20 -3 -39 -3 -42 0 -2 4 -29 4 -59 1 -31 -3 -56 -4 -56 -1 0 5 -97 5
-110 0 -3 -1 -9 -1 -14 0 -4 1 -27 2 -50 1 -22 0 -48 -1 -56 -1 -23 0 -252 0
-275 1 -11 0 -49 0 -85 -1 -36 0 -72 0 -80 0 -8 1 -44 1 -80 0 -36 0 -71 0
-77 0 -37 1 -127 1 -193 1 -41 0 -94 0 -116 0 -23 1 -46 0 -50 -1 -5 -1 -11
-1 -14 0 -14 5 -110 5 -110 0 0 -3 -22 -3 -50 1 -27 3 -55 3 -61 -1 -6 -3 -25
-3 -43 0 -17 4 -44 4 -61 1 -16 -3 -41 -3 -55 0 -14 3 -42 3 -62 -1 -21 -3
-40 -4 -42 -1 -5 4 -151 4 -284 0 -39 -2 -72 -1 -72 2 0 6 -99 4 -105 -2 -3
-2 -27 -2 -55 2 -28 4 -51 6 -53 4z"/>
</g>
</svg>
